<?xml version="1.0" encoding="UTF-8" standalone="no"?>
<svg
   xmlns:dc="http://purl.org/dc/elements/1.1/"
   xmlns:cc="http://creativecommons.org/ns#"
   xmlns:rdf="http://www.w3.org/1999/02/22-rdf-syntax-ns#"
   xmlns:svg="http://www.w3.org/2000/svg"
   xmlns="http://www.w3.org/2000/svg"
   version="1.1"
   id="svg10"
   width="1280"
   height="512"
   viewBox="0 0 1280 512">
  <metadata
     id="metadata16">
    <rdf:RDF>
      <cc:Work
         rdf:about="">
        <dc:format>image/svg+xml</dc:format>
        <dc:type
           rdf:resource="http://purl.org/dc/dcmitype/StillImage" />
        <dc:title></dc:title>
      </cc:Work>
    </rdf:RDF>
  </metadata>
  <defs
     id="defs14" />
  <path
     style="fill:#0060b2"
     d="m 713.27215,422.56314 c -7.8693,-1.90683 -17.60227,-7.09049 -22.80202,-12.14406 -4.33593,-4.21404 -4.54767,-4.65478 -3.22589,-6.71458 0.77805,-1.21247 4.01386,-6.817 7.19069,-12.4545 3.17684,-5.6375 6.10255,-10.25 6.50159,-10.25 0.39903,0 1.32673,1.12336 2.06153,2.49636 4.702,8.78576 24.71186,16.60324 33.90605,13.24647 4.22492,-1.54251 5.59242,-3.62842 4.70271,-7.17328 -1.05416,-4.20011 -4.59864,-6.81989 -15.55915,-11.49999 -8.3991,-3.58639 -10.8588,-5.17666 -14.97795,-9.68366 -6.46362,-7.07224 -9.35444,-14.51094 -9.47679,-24.3859 -0.0782,-6.30913 0.35265,-8.40735 2.71323,-13.21444 3.44804,-7.02158 10.0257,-12.9889 17.54676,-15.91859 7.61231,-2.96524 23.67003,-3.65655 34.14709,-1.47008 8.48743,1.77126 24.39594,9.12892 23.6939,10.95841 -0.25006,0.65164 -3.44911,5.79926 -7.10901,11.43915 l -6.65436,10.25435 -3.32785,-2.53828 c -4.8152,-3.67273 -11.9419,-5.8451 -17.22276,-5.24987 -5.64298,0.63604 -8.37992,3.03787 -8.37992,7.35387 0,4.95923 3.90248,7.945 14.89386,11.39522 5.16662,1.62182 10.56662,3.69135 12,4.59896 11.05572,7.00046 15.04728,17.31677 11.61139,30.00997 -4.02553,14.8715 -16.46114,26.78786 -32.14959,30.80718 -7.32709,1.87716 -22.61527,1.94693 -30.08351,0.13729 z m -250.27132,-2.29007 c 7.2e-4,-1.52338 13.91428,-93.88193 15.52352,-103.04544 l 0.57467,-3.27236 18.10414,0.27236 18.10414,0.27237 12.09635,29.17062 c 6.65299,16.04384 12.43385,29.50634 12.84635,29.91666 0.4125,0.41033 0.75,-4.08227 0.75,-9.98355 0,-8.99254 3.09177,-34.93517 5.5839,-46.85373 l 0.57501,-2.75 h 17.93236 17.93237 l -0.69727,4.25 c -0.3835,2.3375 -4.10272,26.525 -8.26495,53.75 l -7.56769,49.5 -17.79316,0.27326 -17.79315,0.27327 -3.30046,-7.27327 C 525.79171,410.77297 520.34303,398.275 515.49878,387 c -4.84426,-11.275 -9.11831,-20.85759 -9.49789,-21.29463 -0.37959,-0.43705 -0.99832,4.28795 -1.37495,10.5 -0.37664,6.21204 -1.90906,18.94463 -3.40537,28.29463 l -2.72057,17 -17.75,0.27307 c -16.42903,0.25276 -17.74994,0.14112 -17.74917,-1.5 z M 573,421.68219 c 0,-0.19757 11.92486,-24.51584 26.49968,-54.0406 l 26.49968,-53.68137 21.22192,0.26989 21.22191,0.26989 1.26879,7.5 c 0.69784,4.125 4.79703,28.3125 9.10933,53.75 l 7.84053,46.25 h -18.25133 -18.25132 l -0.69609,-6.5 -0.69609,-6.5 h -15.69096 -15.69096 l -1.9985,6.25 -1.99849,6.25 -20.19405,0.27071 C 582.08732,421.91959 573,421.87976 573,421.68219 Z M 645.71965,379.75 c -0.30371,-2.3375 -1.34915,-12.2375 -2.32321,-22 -0.97406,-9.7625 -2.03246,-17.75 -2.352,-17.75 -0.31954,0 -3.67441,9.3375 -7.45527,20.75 -3.78086,11.4125 -7.08329,21.3125 -7.33872,22 -0.35255,0.94887 2.00313,1.25 9.77849,1.25 h 10.24291 z M 777,421.64006 c 0,-0.19797 4.05,-24.03646 9,-52.97443 4.95,-28.93797 9,-53.076 9,-53.64006 0,-0.66478 6.68418,-1.02557 19,-1.02557 10.45,0 19,0.2774 19,0.61645 0,0.33905 -4.05,24.26073 -9,53.15928 -4.95,28.89855 -9,52.92115 -9,53.38355 0,0.46239 -8.55,0.84072 -19,0.84072 -10.45,0 -19,-0.16197 -19,-0.35994 z m 91,-1.16894 c -17.77338,-4.91991 -31.15438,-18.16435 -34.93946,-34.5829 -1.51043,-6.55178 -1.26622,-18.3023 0.52464,-25.24388 3.87645,-15.02553 17.39022,-32.20513 30.91482,-39.30097 23.70205,-12.43556 49.77152,-9.97889 66.15445,6.23411 9.64498,9.54494 13.94236,21.61945 13.0964,36.79749 -1.35038,24.22851 -18.62474,45.82762 -43.36788,54.22534 -9.89239,3.35744 -24.05642,4.17571 -32.38297,1.87081 z m 24.14156,-32.63168 c 8.52966,-2.55555 16.24934,-12.88322 17.49095,-23.40003 1.88249,-15.94534 -10.74561,-26.65877 -24.21333,-20.54209 -11.72014,5.32299 -18.60231,20.08115 -15.0549,32.28382 3.03077,10.42547 11.23416,14.8171 21.77728,11.6583 z M 949,420.074 c 0,-1.95689 14.61028,-99.48915 15.55608,-103.84646 l 0.4933,-2.27247 18.1422,0.27247 18.14222,0.27246 11.76,28.5 c 6.468,15.675 12.2164,29.175 12.7743,30 0.7168,1.06012 1.0342,-1.7258 1.0823,-9.5 0.056,-9.0992 3.5268,-38.59586 5.5593,-47.25 0.5237,-2.22996 0.688,-2.25 18.4465,-2.25 h 17.9181 l -0.6129,3.75 c -0.3371,2.0625 -4.0379,26.25 -8.224,53.75 l -7.6112,50 -17.9631,0.26643 -17.9631,0.26644 -11.9124,-27.76644 c -6.55182,-15.27153 -12.21942,-28.12402 -12.59462,-28.56106 -0.3752,-0.43705 -0.9904,4.28795 -1.367,10.5 -0.3767,6.21204 -1.9091,18.94463 -3.4054,28.29463 l -2.7206,17 -17.75,0.27307 C 949.6579,422.03603 949,421.97305 949,420.074 Z m 110,0.9223 c 0,-0.55204 11.9258,-24.85204 26.5019,-54 L 1112.0037,314 h 20.9308 c 19.068,0 20.9773,0.15574 21.454,1.75 0.7444,2.48954 17.6115,102.71515 17.6115,104.64872 0,1.40863 -2.1498,1.60128 -17.8692,1.60128 h -17.8691 l -0.6199,-3.75 c -0.3409,-2.0625 -0.6247,-4.9875 -0.6308,-6.5 L 1135,409 h -15.9185 -15.9184 l -2.1631,6.5 -2.1631,6.5 h -19.9184 C 1066.2572,422 1059,421.63431 1059,420.9963 Z m 72.6356,-41.2463 c -0.3253,-2.3375 -1.3002,-11.45 -2.1663,-20.25 -0.8662,-8.8 -1.831,-17.125 -2.144,-18.5 -0.4226,-1.85648 -2.4682,3.15852 -7.9472,19.48279 -4.0579,12.09053 -7.3781,22.32803 -7.3781,22.75 0,0.42197 4.5511,0.76721 10.1135,0.76721 h 10.1136 z m 48.0588,41.51305 c -0.2419,-0.41968 3.2118,-24.72555 7.6749,-54.01305 l 8.1146,-53.25 h 18.758 c 10.317,0 18.7558,0.3375 18.753,0.75 -0.01,0.92511 -9.7313,67.49775 -10.5178,72 l -0.5677,3.25 h 15.8774 15.8774 l -2.6134,15.75 -2.6134,15.75 -34.1516,0.26305 c -18.7834,0.14468 -34.3495,-0.0803 -34.5914,-0.5 z M 892,288.30915 c -19.55367,-3.27321 -35.6101,-16.6365 -41.04342,-34.15922 -2.56702,-8.27878 -2.79961,-24.66738 -0.47756,-33.64993 4.16037,-16.09384 15.35384,-30.85325 28.38948,-37.43362 17.85444,-9.01289 41.10828,-9.42944 58.66401,-1.05086 6.84471,3.26668 17.68047,12.57713 20.73157,17.81333 1.6855,2.89248 1.6855,3.0501 0,3.53584 -0.9702,0.27962 -8.4454,2.59953 -16.61145,5.15535 l -14.84736,4.64695 -1.62891,-2.3335 c -5.10334,-7.3108 -10.82395,-9.6782 -18.9774,-7.85353 -14.54416,3.25484 -23.63571,24.08151 -18.77971,43.02004 2.10957,8.22736 4.99731,12.50066 10.14647,15.01484 10.30327,5.03075 18.46157,0.36101 20.08697,-11.49761 L 918.27185,245 H 911.13592 904 v -10 -10 h 26.61663 c 26.36765,0 26.61165,0.0192 26.07885,2.05641 -0.2957,1.13103 -2.6603,12.26853 -5.25446,24.75 -2.68119,12.90009 -5.38696,23.46596 -6.26983,24.48334 -2.75782,3.178 -15.42877,8.67121 -24.67119,10.69564 -8.31649,1.82161 -21.78793,2.44733 -28.5,1.32376 z m -352,-2.46863 c 0,-0.65127 2.93746,-19.44432 6.5277,-41.76232 3.59023,-22.31801 7.38396,-45.90943 8.4305,-52.42537 1.04655,-6.51595 2.08977,-12.03413 2.31828,-12.26264 0.2285,-0.2285 16.59709,-0.29728 36.37463,-0.15283 l 35.95917,0.26264 -2.05514,13 -2.05514,13 -16.6547,0.27375 -16.6547,0.27374 -0.99222,5.72626 c -0.54571,3.14944 -0.78704,6.06375 -0.53628,6.47625 0.25076,0.4125 6.95438,0.75 14.89692,0.75 10.88965,0 14.43935,0.3074 14.43435,1.25 -0.004,0.6875 -0.90066,6.425 -1.99337,12.75 -1.09271,6.325 -1.98972,11.8375 -1.99337,12.25 -0.004,0.4125 -6.73007,0.75 -14.94761,0.75 -8.21754,0 -15.14109,0.3375 -15.38567,0.75 -0.24458,0.4125 -0.76336,3.1125 -1.15286,6 l -0.70817,5.25 h 17.09384 c 15.63497,0 17.08896,0.14935 17.03663,1.75 -0.0315,0.9625 -1.06882,7.375 -2.30525,14.25 l -2.24805,12.5 -36.69474,0.26232 C 548.94668,286.96068 540,286.73594 540,285.84052 Z m 85.03901,0.93204 C 625.06051,286.62265 628.7981,262.2 633.34485,232.5 l 8.26681,-54 h 18.35043 18.35042 l 11.33976,27 c 6.23687,14.85 11.88612,28.125 12.55388,29.5 1.04803,2.15802 1.30588,0.79008 1.88498,-10 0.36898,-6.875 1.91305,-20.2625 3.43125,-29.75 L 710.28276,178 h 17.85862 C 745.13892,178 746,178.0934 746,179.93675 c 0,1.71766 -14.13357,95.57768 -15.63567,103.83536 l -0.59521,3.27211 -18.09448,-0.27211 L 693.58015,286.5 681.4745,258.26775 c -6.65812,-15.52773 -12.34456,-28.47114 -12.63654,-28.76313 -0.29199,-0.29198 -0.83559,4.31253 -1.20802,10.23225 -0.37242,5.91972 -1.90402,18.86313 -3.40354,28.76313 l -2.7264,18 -18.25,0.27256 c -10.0375,0.14991 -18.23244,0.14991 -18.21099,0 z M 736,286.02317 c 0,-0.56004 12.03554,-25.09435 26.74565,-54.52071 L 789.49129,178 h 21.1749 21.1749 l 0.55962,2.75 C 833.7314,187.28904 850,284.13455 850,285.51695 c 0,1.32502 -2.42606,1.49193 -18.25,1.25561 L 813.5,286.5 l -0.26654,-4 c -0.61108,-9.17038 0.73441,-8.5 -17.05997,-8.5 h -15.7884 l -1.9985,6.25 -1.99849,6.25 -20.19405,0.27071 C 742.97958,286.94785 736,286.68948 736,286.02317 Z M 809.00181,245.75 c 0.002,-3.28791 -3.8454,-40.40384 -4.37941,-42.25 -0.15908,-0.55 -3.58045,8.9 -7.60304,21 -4.02259,12.1 -7.52069,22.5625 -7.77356,23.25 -0.34865,0.94788 1.98307,1.25 9.64721,1.25 H 809 l 0.002,-3.25 z m 142.99817,40.93317 c 0,-0.19703 11.9286,-24.50635 26.5079,-54.0207 L 1005.0158,179 h 21.473 c 21.444,0 21.4738,0.003 22.0053,2.25 1.0957,4.63196 17.5059,101.94027 17.5059,103.80531 0,1.85415 -0.8371,1.94469 -17.9809,1.94469 -20.2954,0 -18.6374,0.73204 -19.2526,-8.5 l -0.2665,-4 h -15.9959 -15.99592 l -2.127,6 -2.127,6 -20.1271,0.27071 c -11.0699,0.14888 -20.1271,0.10949 -20.1271,-0.0875 z M 1025.4916,246.25 c -0.2521,-1.5125 -1.4019,-11.74859 -2.5552,-22.74686 -1.1532,-10.99828 -2.1871,-20.08718 -2.2975,-20.19755 -0.1104,-0.11038 -3.6356,10.12571 -7.8339,22.74686 L 1005.1717,249 h 10.3891 10.3892 z m -554.08774,36.5 c 0.35962,-1.7875 3.12198,-18.1 6.13856,-36.25 3.01659,-18.15 5.73936,-34.2375 6.0506,-35.75 L 484.15891,208 H 472.07946 C 462.53381,208 460,207.71338 460,206.63361 460,205.8821 461.125,199.29698 462.5,192 463.875,184.70302 465,178.5679 465,178.36639 465,178.16487 483.45,178 506,178 c 22.55,0 41,0.28751 41,0.63891 0,0.93032 -3.93145,24.45761 -4.53031,27.11109 -0.48495,2.14878 -0.95596,2.25 -10.46969,2.25 -9.51448,0 -9.98459,0.10105 -10.46716,2.25 C 520.84199,213.32647 509,284.10476 509,285.15746 509,285.62086 500.39375,286 489.875,286 H 470.75 Z"
     id="path9" />
  <path
     style="fill:#e33f24"
     d="m 122.5,419.50974 c -5.1418,-1.8028 -12.8064,-10.02589 -14.80087,-15.87935 -3.51692,-10.32158 2.52283,-18.54805 15.63553,-21.29646 4.69547,-0.98417 22.87829,-1.29722 76.26746,-1.31309 L 269.70423,381 l 3.39789,-2.25145 c 1.90779,-1.2641 4.49422,-4.44348 5.89788,-7.25 L 281.5,366.5 282.06383,326 c 0.60656,-43.56909 0.7608,-44.90592 6.26465,-54.29754 5.65745,-9.6537 17.45563,-17.27909 31.25908,-20.20334 4.35105,-0.92176 12.69377,-1.47083 22.51456,-1.48176 14.52374,-0.0162 15.83696,-0.17379 19,-2.28056 1.86883,-1.24475 4.22416,-3.94835 5.23405,-6.00798 1.73249,-3.53332 1.82911,-7.71946 1.71105,-74.12923 C 367.9784,128.88815 367.54576,95.902953 367.0858,94.299156 364.9656,86.906477 360.99259,82.148331 354.76847,79.547728 351.48675,78.176536 335.57236,78 215.24401,78 H 79.42378 l -4.46189,2.25 C 71.834669,81.826966 69.752184,83.846069 68,87 l -2.5,4.5 v 72 72 l 2.299107,4.66717 C 71.764325,248.21652 72.468415,248.4295 97,249 c 21.03196,0.48912 21.62387,0.56083 27.19009,3.29424 10.41956,5.11674 19.48112,17.66734 23.27651,32.23885 1.05594,4.05401 1.5334,10.67196 1.5334,21.25393 v 15.36683 l 2.92308,2.92307 c 3.2873,3.2873 4.74266,3.52609 9.35904,1.53557 7.16599,-3.08987 11.95063,-10.06806 35.12701,-51.23116 12.42359,-22.06526 22.87554,-41.55468 23.22657,-43.30982 0.8749,-4.37451 -1.11809,-7.64725 -5.79702,-9.51938 C 210.63928,220.27198 204.78813,220 180.44764,220 c -31.35265,0 -35.02693,-0.47686 -37.36715,-4.8496 -2.07812,-3.88301 -1.21176,-9.61929 2.60512,-17.24879 3.39896,-6.79411 7.57556,-11.31559 53.70015,-58.13435 C 226.89376,111.84527 249.54127,89 249.71357,89 c 0.49747,0 -1.6264,4.635552 -16.67373,36.3921 -15.65695,33.04308 -17.36157,38.27251 -14.41141,44.21129 2.26864,4.56686 5.71876,7.2261 10.94896,8.43914 2.15744,0.50036 14.04761,0.92119 26.42261,0.93517 25.78734,0.0291 28.05606,0.56481 31.40013,7.41415 4.03471,8.26392 3.94938,8.44228 -41.11507,85.93521 -22.44421,38.59512 -41.92203,72.42294 -43.28404,75.17294 -3.20428,6.46965 -11.29567,14.60214 -17.81549,17.90599 -14.49025,7.34276 -36.82104,7.37305 -51.23393,0.0695 -2.90744,-1.47332 -7.69537,-4.9572 -10.63985,-7.74196 -10.03357,-9.48933 -14.60607,-20.66032 -16.71099,-40.82624 -1.2444,-11.92187 -1.61508,-13.36048 -4.30956,-16.72554 -1.62144,-2.02496 -5.387767,-5.01014 -8.36963,-6.63373 C 89.015013,290.87643 87.312583,290.53596 76,289.96383 66.673853,289.49217 62.076773,288.77724 57.894718,287.14812 41.027761,280.57762 29.159856,266.00522 23.976078,245.5 c -1.93924,-7.67096 -2.021043,-10.97569 -1.988898,-80.34811 0.02887,-62.3114 0.253657,-73.340278 1.620319,-79.5 C 28.667338,62.846534 43.485454,47.695676 68.5,39.751321 l 7,-2.223125 143.38565,-0.287168 c 125.39402,-0.251134 144.12693,-0.09726 149.29339,1.226329 19.94848,5.110562 33.32379,19.765436 40.32912,44.187235 l 2.5755,8.978641 -0.34238,75.433387 c -0.31282,68.92066 -0.49666,75.9514 -2.12935,81.43338 -5.01148,16.82668 -15.60966,29.09917 -31.85183,36.88382 -10.35865,4.96475 -18.09055,7.09199 -31.08273,8.55164 -10.46271,1.17546 -14.75558,3.42614 -17.95846,9.41531 -2.13077,3.98441 -2.24102,5.49984 -2.77545,38.14923 -0.55275,33.76911 -0.5751,34.05359 -3.29039,41.89139 -6.53705,18.86944 -19.57899,30.17925 -41.06303,35.60936 -7.56006,1.91081 -11.14321,1.99731 -81,1.95536 -60.0569,-0.0361 -73.8033,-0.29398 -77.09004,-1.44637 z"
     id="path42" />
  <path
     style="fill:#e33f24"
     d="m 165.00714,475.40702 c -7.93734,-3.44208 -12.01554,-10.11416 -11.99069,-19.61718 0.0195,-7.45095 2.44276,-12.4557 8.3256,-17.19478 L 165.1841,435.5 216.34205,435.25175 267.5,435.0035 l 3.95841,2.25673 c 2.17712,1.24121 5.32712,4.20419 7,6.5844 2.76117,3.92866 3.04159,5.04934 3.04159,12.15537 0,7.08427 -0.28493,8.23226 -3,12.08709 -1.65,2.34265 -4.98328,5.30641 -7.40728,6.58614 L 266.68543,477 217.59272,476.9609 c -41.58461,-0.0332 -49.62691,-0.2708 -52.58558,-1.55384 z"
     id="path11" />
</svg>
